<?xml version="1.0" encoding="UTF-8"?>
<svg width="70pt" height="70pt" version="1.1" viewBox="0 0 700 700" xmlns="http://www.w3.org/2000/svg" xmlns:xlink="http://www.w3.org/1999/xlink" >
 <g>
  <path d="m364.21 83.969c25.785 0 49.586 10.578 66.777 27.77 17.191 17.191 27.77 40.992 27.77 66.777s-10.578 49.586-27.77 66.777c-17.191 17.191-40.992 27.77-66.777 27.77-26.445 0-49.586-10.578-66.777-27.77-17.191-17.191-27.77-40.992-27.77-66.777s10.578-49.586 27.77-66.777c17.191-17.191 40.332-27.77 66.777-27.77zm57.52 37.023c-14.547-14.547-35.043-23.801-57.52-23.801-22.48 0-42.977 9.2578-57.52 23.801-14.547 14.547-23.801 35.043-23.801 57.52 0 22.48 9.2578 42.977 23.801 57.52 14.547 14.547 35.043 23.801 57.52 23.801 22.48 0 42.977-9.2578 57.52-23.801 14.547-14.547 23.801-35.043 23.801-57.52 0-22.48-9.2578-42.977-23.801-57.52z"/>
  <path d="m326.53 152.07h75.371c6.6133 0 13.223 2.6445 17.191 7.2734 4.6289 4.6289 7.2734 10.578 7.2734 17.852v3.3047c0 6.6133-2.6445 12.562-7.2734 17.191-3.9688 4.6289-10.578 7.2734-17.191 7.2734h-75.371c-7.2734 0-13.223-2.6445-17.852-7.2734-3.9688-4.6289-7.2734-10.578-7.2734-17.191v-3.3047c0-7.2734 3.3047-13.223 7.2734-17.852 4.6289-4.6289 10.578-7.2734 17.852-7.2734zm75.371 13.223h-75.371c-3.3047 0-5.9492 1.3242-8.5938 3.3047-1.9844 1.9844-3.3047 5.2891-3.3047 8.5938v3.3047c0 2.6445 1.3242 5.9492 3.3047 7.9336 2.6445 1.9844 5.2891 3.3047 8.5938 3.3047h75.371c3.3047 0 5.9492-1.3242 7.9336-3.3047 1.9844-1.9844 3.3047-5.2891 3.3047-7.9336v-3.3047c0-3.3047-1.3242-6.6133-3.3047-8.5938-1.9844-1.9844-4.6289-3.3047-7.9336-3.3047z"/>
  <path d="m199.59 217.52c-1.9844 1.9844-2.6445 3.9688-2.6445 6.6133 0 1.9844 0.66016 4.6289 1.9844 5.9492l46.941 52.23c5.2891-3.3047 10.578-6.6133 16.527-9.2578l-50.246-54.875c-1.3242-1.9844-3.9688-2.6445-5.9492-2.6445-1.9844 0-4.6289 0.66016-6.6133 1.9844zm95.207 48.926h7.2734l1.3242 0.66016c9.2578 5.2891 19.172 9.2578 29.09 12.562 10.578 2.6445 21.156 3.9688 31.734 3.9688 11.238 0 21.816-1.3242 31.734-3.9688 10.578-3.3047 20.496-7.2734 29.09-12.562l1.9844-0.66016h6.6133c22.48 0 43.637 9.2578 58.184 24.461 15.207 14.547 24.461 35.043 24.461 58.184v72.727l-2.6445 1.9844c-50.91 34.379-101.16 51.57-151.41 51.57-49.586 0-98.512-17.191-147.44-51.57l-2.6445-1.9844v-72.727c0-22.48 9.2578-42.977 23.801-58.184l-46.941-51.57c-3.9688-4.6289-5.9492-10.578-5.2891-15.867 0-5.9492 2.6445-11.238 6.6133-15.207l0.66016-0.66016c4.6289-3.9688 9.918-5.9492 15.867-5.2891 5.2891 0 11.238 2.6445 15.207 6.6133 17.852 19.836 35.703 39.668 53.555 59.504 6.6133-1.3242 12.562-1.9844 19.172-1.9844zm3.3047 13.223h-3.3047c-19.172 0-36.363 7.9336-48.926 20.496s-20.496 29.754-20.496 48.926v65.453c45.621 31.734 91.238 47.602 136.86 47.602 46.281 0 93.223-15.867 140.83-47.602v-65.453c0-19.172-7.9336-36.363-20.496-48.926s-29.754-20.496-48.926-20.496h-3.3047c-9.918 5.2891-20.496 9.2578-31.074 12.562-11.238 2.6445-23.141 4.6289-35.043 4.6289s-23.801-1.9844-35.043-4.6289c-10.578-3.3047-21.156-7.2734-31.074-12.562z"/>
 </g>
</svg>
