<?xml version="1.0" encoding="UTF-8"?>
<svg width="70pt" height="70pt" version="1.1" viewBox="0 0 700 700" xmlns="http://www.w3.org/2000/svg" xmlns:xlink="http://www.w3.org/1999/xlink">
 <g>
  <path d="m84 476 122.64-39.762 14-222.32-108.08 39.199z"/>
  <path d="m230.16 436.8 108.08 39.199v-223.44l-93.52-38.637z"/>
  <path d="m443.52 304.08-35.84-70.559-45.359 19.039v223.44l107.52-39.199-7.8398-115.92c-7.8398-3.3594-14.559-8.957-18.48-16.801z"/>
  <path d="m587.44 253.12-48.16-17.359c-15.68 30.238-33.602 65.52-34.719 67.762-3.9219 7.8398-10.641 14-18.48 16.801l7.2812 115.92 122.64 39.754z"/>
  <path d="m537.6 123.2c-17.922-35.281-60.48-49.281-95.199-31.359-35.281 17.922-48.719 61.602-31.359 95.199 17.359 33.602 54.32 105.84 54.32 105.84 3.9219 7.8398 15.121 7.8398 18.48 0 0 0 44.238-85.68 54.32-105.84 9.5156-20.16 9.5156-43.117-0.5625-63.84zm-63.281 67.199c-18.48 0-33.602-15.121-33.602-33.602s15.121-33.602 33.602-33.602c18.48 0 33.602 15.121 33.602 33.602 0 18.484-15.121 33.602-33.602 33.602z"/>
 </g>
</svg>
