<?xml version="1.0" encoding="UTF-8"?>
<svg width="700pt" height="700pt" version="1.1" viewBox="0 0 700 700" xmlns="http://www.w3.org/2000/svg" xmlns:xlink="http://www.w3.org/1999/xlink">
 <g>
  <path d="m481.25 166.25c-33.828 0-61.25-27.422-61.25-61.25s27.422-61.25 61.25-61.25 61.25 27.422 61.25 61.25-27.422 61.25-61.25 61.25z" fill-rule="evenodd"/>
  <path d="m218.75 166.25c-33.828 0-61.25-27.422-61.25-61.25s27.422-61.25 61.25-61.25 61.25 27.422 61.25 61.25-27.422 61.25-61.25 61.25z" fill-rule="evenodd"/>
  <path d="m350 306.25c-38.66 0-70.004-31.34-70.004-70.004 0-38.66 31.34-70.004 70.004-70.004 38.66 0 70.004 31.34 70.004 70.004 0 38.66-31.34 70.004-70.004 70.004z" fill-rule="evenodd"/>
  <path d="m490.02 446.23c0-57.996-47.02-105-105.01-105h-69.996c-57.988 0-100.01 47.004-105.01 105v17.5c0 13.918 0.5391 27.277 15.379 37.125 9.8555 9.8477 23.199 15.375 37.129 15.375h229 " fill-rule="evenodd"/>
  <path d="m193.74 376.25h-44.984c-13.922 0-27.273-5.5312-37.125-15.375-9.8438-9.8516-15.375-23.203-15.375-37.125v-17.5c0-27.852 11.059-54.555 30.758-74.242 19.688-19.695 46.391-30.758 74.242-30.758h35c4.8398 0 9.6523 0.33203 14.395 0.98828-3.6562 10.668-5.6445 22.109-5.6445 34.012 0 29.504 12.199 56.191 31.824 75.266-35.387 10.012-65.074 33.574-83.09 64.734z" fill-rule="evenodd"/>
  <path d="m449.36 202.23c4.7422-0.65625 9.5547-0.98828 14.395-0.98828h35c27.852 0 54.555 11.059 74.242 30.758 19.695 19.688 30.758 46.391 30.758 74.242v17.5c0 13.922-5.5312 27.273-15.375 37.125-9.8516 9.8438-23.203 15.375-37.125 15.375h-44.984c-18.016-31.16-47.703-54.723-83.09-64.734 19.625-19.074 31.824-45.762 31.824-75.266 0-11.898-1.9844-23.344-5.6445-34.012z" fill-rule="evenodd"/>
 </g>
</svg>