<?xml version="1.0" encoding="UTF-8"?>
<svg width="700pt" height="700pt" version="1.1" viewBox="0 0 700 700" xmlns="http://www.w3.org/2000/svg" xmlns:xlink="http://www.w3.org/1999/xlink">
 <g>
  <path d="m327.6 33.602c-49.484 0-89.602 40.113-89.602 89.602 0 49.484 40.113 89.602 89.602 89.602 49.484 0 89.602-40.113 89.602-89.602 0-49.484-40.113-89.602-89.602-89.602zm0 235.2c-105.48 0-190.4 51.332-190.4 112v89.602h291.9c-0.42187-2.3945-0.70312-4.9844-0.70312-7.5273v-78.75c24.145-9.1992 48.566-16.766 72.801-25.727 4.8398 1.7617 9.6797 3.3711 14.523 5.0742-14.301-52.809-92.852-94.672-188.12-94.672zm173.6 100.8-61.602 22.398v70.875c0 26.383 32.727 44.859 61.602 63.523 28.875-18.668 61.602-37.145 61.602-63.523v-70.875z"/>
 </g>
</svg>
