<?xml version="1.0" encoding="UTF-8"?>
<svg width="700pt" height="700pt" version="1.1" viewBox="0 0 700 700" xmlns="http://www.w3.org/2000/svg" xmlns:xlink="http://www.w3.org/1999/xlink">
 <g>
  <path d="m235.2 208.27 47.602 75.094c1.5352 2.4141 4.1953 3.8711 7.0547 3.8633 2.8711-0.003906 5.5469-1.457 7.1133-3.8633l47.77-75.098-0.003906 0.003906c9.9141-13.613 14.43-30.41 12.684-47.156-1.75-16.746-9.6406-32.25-22.148-43.52-12.508-11.27-28.746-17.508-45.582-17.508s-33.074 6.2383-45.582 17.508c-12.508 11.27-20.398 26.773-22.145 43.52-1.75 16.746 2.7695 33.543 12.68 47.156zm54.824-91.672c13.629 0 26.699 5.418 36.332 15.059 9.6328 9.6445 15.035 22.719 15.02 36.348 0.011719 11.125-3.625 21.945-10.359 30.801 0 0.44922-0.55859 0.89453-0.78516 1.3438l-40.207 63.055-40.152-63.109c-0.22656-0.5-0.50781-0.96875-0.83984-1.4023-6.6914-8.8281-10.312-19.609-10.305-30.688-0.011718-13.621 5.3828-26.688 15.004-36.328 9.6172-9.6406 22.676-15.066 36.293-15.078z"/>
  <path d="m290.02 201.88c9.0234 0 17.676-3.5859 24.051-9.9688 6.375-6.3828 9.9531-15.039 9.9414-24.059-0.011719-9.0234-3.6055-17.672-9.9961-24.039s-15.047-9.9375-24.07-9.918c-9.0234 0.019531-17.664 3.625-24.027 10.023-6.3633 6.3984-9.918 15.059-9.8906 24.082 0.03125 8.9961 3.625 17.613 9.9961 23.965 6.3711 6.3477 15 9.9141 23.996 9.9141zm0-51.184c4.5547 0 8.9219 1.8086 12.145 5.0234 3.2227 3.2148 5.0391 7.5781 5.0469 12.133 0.011718 4.5508-1.7852 8.9219-4.9961 12.152-3.207 3.2305-7.5664 5.0547-12.121 5.0742-4.5508 0.019531-8.9258-1.7656-12.164-4.9688-3.2383-3.1992-5.0703-7.5547-5.1016-12.109-0.03125-4.5781 1.7695-8.9805 4.9961-12.23 3.2266-3.2461 7.6172-5.0742 12.195-5.0742z"/>
  <path d="m320.71 269.75c-4.4062-0.015625-8.0898 3.3594-8.4531 7.75-0.36719 4.3945 2.7031 8.332 7.0547 9.0469 18.09 1.457 24.641 4.7031 26.879 6.2148-5.9922 3.5273-25.535 8.6797-56 8.6797s-50.062-5.1523-56-8.6797c2.2969-1.5664 8.793-4.7031 26.32-6.2148 2.2227-0.18359 4.2773-1.2422 5.7148-2.9453 1.4414-1.7031 2.1445-3.9062 1.957-6.125-0.44531-4.5938-4.4688-7.9961-9.0703-7.6719-10.586 0.89453-42.785 3.6406-42.785 23.801 0 23.465 61.602 24.641 73.977 24.641s73.977-1.1758 73.977-24.641c-0.28125-20.273-32.875-22.961-43.57-23.855z"/>
  <path d="m579.6 471.63-95.199-100.8h-0.003906c-4.1211-4.3516-9.8516-6.8203-15.848-6.832-7.4336 0.13672-14.5 3.2656-19.598 8.6797l-1.2891 1.3438-21.895-23.016c34.82-35.445 54.133-83.27 53.691-132.95-0.44141-49.688-20.602-97.16-56.047-131.98-35.441-34.82-83.27-54.133-132.95-53.691-49.684 0.44141-97.16 20.602-131.98 56.047-33.84 33.988-53.355 79.66-54.531 127.61-1.1758 47.949 16.078 94.523 48.211 130.13 32.133 35.605 76.699 57.535 124.52 61.273 47.816 3.7344 95.242-11.008 132.52-41.195l23.07 24.246 0.003906 0.003906c-3.7891 4.6562-5.8125 10.5-5.7188 16.5 0.089844 6 2.293 11.777 6.2227 16.316l95.199 100.8c4.1758 4.4453 10.023 6.9453 16.129 6.8867 7.4258-0.17969 14.477-3.3008 19.598-8.6797l14-14.617c4.8828-4.6211 7.8008-10.938 8.1562-17.652 0.35547-6.7109-1.8828-13.301-6.25-18.41zm-172.04-134.12c-26.977 26.957-62.465 43.73-100.42 47.457-37.953 3.7305-76.027-5.8203-107.73-27.016-31.707-21.195-55.086-52.727-66.148-89.223-11.066-36.5-9.1367-75.703 5.4609-110.94s40.961-64.316 74.594-82.297c33.637-17.977 72.465-23.738 109.87-16.301 37.406 7.4414 71.074 27.617 95.273 57.094 24.199 29.48 37.43 66.438 37.434 104.57-0.007812 43.754-17.391 85.711-48.328 116.65zm154.06 154.62-14.055 14.617-0.003906-0.003906c-0.89844 1.0156-2.0938 1.7227-3.4141 2.0195l-95.199-100.8c-0.33203-1.9531 0.39453-3.9297 1.9023-5.207l14.055-14.559v-0.003906c0.89062-1 2.0625-1.7031 3.3633-2.0156l95.199 100.8c0.32031 1.9219-0.37891 3.8711-1.8477 5.1523z"/>
 </g>
</svg>
