<?xml version="1.0" encoding="UTF-8"?>
<svg width="700pt" height="700pt" version="1.1" viewBox="0 0 700 700" xmlns="http://www.w3.org/2000/svg" xmlns:xlink="http://www.w3.org/1999/xlink">
 <g>
  <path d="m541.27 111.74c-3.457-2.4727-7.918-3.0625-11.898-1.5742l-118.12 42.172-118.12-42.172h-8.75l-122.5 43.75c-5.2305 1.8477-8.7344 6.7891-8.75 12.336v271.25c-0.003906 4.2852 2.0859 8.3047 5.6016 10.762 2.1953 1.5625 4.8281 2.3906 7.5234 2.3633 1.4922 0 2.9766-0.26562 4.375-0.78906l118.12-42.172 118.12 42.176v-0.003906c2.8281 1.0156 5.9219 1.0156 8.75 0l122.5-43.75c5.2305-1.8477 8.7344-6.7891 8.75-12.336v-271.25c0.003906-4.2852-2.0859-8.3047-5.6016-10.762zm-265.65 272.74-96.25 34.387v-243.34l96.25-34.387zm122.5 34.387-96.25-34.387v-243.34l96.25 34.387zm122.5-34.387-96.25 34.387v-243.34l96.25-34.387z"/>
 </g>
</svg>
