<?xml version="1.0" encoding="UTF-8"?>
<svg width="700pt" height="700pt" version="1.1" viewBox="0 0 700 700" xmlns="http://www.w3.org/2000/svg" xmlns:xlink="http://www.w3.org/1999/xlink">
 <g>
  <path d="m562.8 78.422c0-24.738-20.078-44.82-44.844-44.82h-335.91c-24.746 0-44.844 20.066-44.844 44.82v380.75c0 37.148 30.09 67.23 67.203 67.23h313.55c24.738 0 44.832-20.055 44.844-44.797h-358.39c-12.379 0-22.414-10.055-22.414-22.402 0-12.371 10.082-22.398 22.414-22.398h313.54c24.77 0 44.848-20.035 44.848-44.848zm-190.4 134.38v-78.402h-44.797v78.402h-78.402v44.801h78.402v78.398h44.797v-78.398h78.402v-44.801z" fill-rule="evenodd"/>
 </g>
</svg>
