<?xml version="1.0" encoding="UTF-8"?>
<svg width="700pt" height="700pt" version="1.1" viewBox="0 0 700 700" xmlns="http://www.w3.org/2000/svg" xmlns:xlink="http://www.w3.org/1999/xlink">
 <g>
  <path d="m550.48 126.56h-389.76c-30.801 0-56 25.199-56 56v195.44c0 30.801 25.199 56 56 56h389.76c30.801 0 56-25.199 56-56v-195.44c0-31.359-25.199-56-56-56zm-400.96 44.801h0.55859-0.55859zm0 217.28h0.55859zm412.16 0h-0.55859 0.55859zm0-45.922c-25.199 2.2383-45.359 21.84-49.84 46.48h-312.48c-4.4805-24.641-24.641-43.68-49.84-46.48v-125.44c25.199-2.2383 45.359-21.84 49.84-46.48h316.96c3.9219 23.52 22.398 41.441 45.922 45.922l-0.003907 126z"/>
  <path d="m234.08 220.64c0 10.824-8.7734 19.598-19.598 19.598s-19.602-8.7734-19.602-19.598 8.7773-19.602 19.602-19.602 19.598 8.7773 19.598 19.602"/>
  <path d="m516.32 339.36c0 10.824-8.7773 19.602-19.602 19.602s-19.598-8.7773-19.598-19.602 8.7734-19.598 19.598-19.598 19.602 8.7734 19.602 19.598"/>
  <path d="m355.6 184.8c-25.199 0-49.281 10.078-67.199 28-17.922 17.922-28 42-28 67.199s10.078 49.281 28 67.199c17.922 17.922 42 28 67.199 28 25.199 0 49.281-10.078 67.199-28 17.922-17.922 28-42 28-67.199s-10.078-49.281-28-67.199c-17.922-17.922-42-28-67.199-28z"/>
 </g>
</svg>
