<?xml version="1.0" encoding="UTF-8"?>
<svg width="700pt" height="700pt" version="1.1" viewBox="0 0 700 700" xmlns="http://www.w3.org/2000/svg" xmlns:xlink="http://www.w3.org/1999/xlink">
 <g>
  <path d="m567.84 451.92-0.55859-0.55859-119.28-119.29c20.719-29.68 31.359-64.961 31.359-100.8 0-98-80.078-178.08-178.08-178.08s-178.08 80.082-178.08 178.08 80.078 178.08 178.08 178.08c35.84 0 71.121-11.199 100.8-31.359l119.28 119.28c12.32 12.879 33.039 13.441 45.922 0.55859 12.32-12.32 12.879-33.039 0.55859-45.918zm-266.56-90.723c-71.68 0-129.92-58.238-129.92-129.92 0-71.68 58.238-129.92 129.92-129.92 71.68 0 129.92 58.238 129.92 129.92-0.003906 71.684-58.242 129.92-129.92 129.92z"/>
 </g>
</svg>
