<?xml version="1.0" encoding="UTF-8"?>
<svg width="700pt" height="700pt" version="1.1" viewBox="0 0 700 700" xmlns="http://www.w3.org/2000/svg" xmlns:xlink="http://www.w3.org/1999/xlink">
 <g>
  <path d="m604.24 150.25c-0.85156 0.011718-1.6992 0.14453-2.5195 0.39453v-67.535c0.007812-3.2031-0.35156-6.3984-1.0625-9.5195 0.042969-0.67188 0.042969-1.3477 0-2.0195 0.16797-36.062-112.11-65.406-250.66-65.406s-250.82 29.344-250.82 65.465c-0.042969 0.67188-0.042969 1.3438 0 2.0156-0.74609 3.1016-1.1406 6.2734-1.1758 9.4648v67.535c-0.81641-0.25-1.6641-0.38281-2.5195-0.39453-13.945 0-25.48 34.219-25.48 76.387 0 42.168 11.535 76.438 25.762 76.438 0.75781-0.035156 1.5117-0.16797 2.2383-0.39062v152.88c0.03125 11.488 4.6055 22.496 12.727 30.617 8.125 8.1211 19.133 12.699 30.617 12.727h7.3906v1.0078 25.539c0.015625 7.5078 3.0078 14.707 8.3164 20.02 5.3125 5.3086 12.512 8.3008 20.02 8.3164h27.328c7.4531-0.10547 14.566-3.1328 19.805-8.4336 5.2383-5.3008 8.1836-12.449 8.1953-19.902v-25.539-1.0078h235.2v1.0078 25.539c-0.003906 7.4609 2.9336 14.625 8.1758 19.938 5.2383 5.3125 12.359 8.3516 19.824 8.4531h26.938-0.003906c7.5117-0.015625 14.711-3.0039 20.02-8.3164 5.3125-5.3086 8.3008-12.508 8.3164-20.02v-25.594-1.0078h7.3945c11.551 0.074218 22.66-4.4531 30.867-12.586 8.207-8.1367 12.836-19.203 12.867-30.758v-152.88c0.81641 0.25 1.6641 0.38281 2.5195 0.39062 14.223 0 25.762-34.215 25.762-76.383s-11.816-76.441-26.043-76.441zm-350.05-110.48h691.63c5.6797 0 10.934 3.0312 13.773 7.9492 2.8398 4.9219 2.8398 10.984 0 15.906-2.8398 4.918-8.0938 7.9492-13.773 7.9492h-191.63c-5.6797 0-10.934-3.0312-13.773-7.9492-2.8398-4.9219-2.8398-10.984 0-15.906 2.8398-4.918 8.0938-7.9492 13.773-7.9492zm-63.727 415.07c-8.1562 0-15.977-3.2383-21.742-9.0039s-9.0039-13.586-9.0039-21.738c0-8.1562 3.2383-15.977 9.0039-21.742s13.586-9.0039 21.742-9.0039c8.1523 0 15.973 3.2383 21.738 9.0039 5.7656 5.7656 9.0039 13.586 9.0039 21.742 0 8.1523-3.2383 15.973-9.0039 21.738-5.7656 5.7656-13.586 9.0039-21.738 9.0039zm319.2 0c-8.1523 0-15.973-3.2383-21.738-9.0039s-9.0078-13.586-9.0078-21.738c0-8.1562 3.2422-15.977 9.0078-21.742s13.586-9.0039 21.738-9.0039 15.973 3.2383 21.738 9.0039 9.0039 13.586 9.0039 21.742c0 8.1719-3.2539 16.008-9.043 21.777-5.7891 5.7695-13.637 8.9961-21.812 8.9648zm46.258-132.5h-0.003906c-0.027344 8.6484-3.4766 16.938-9.5938 23.055-6.1172 6.1133-14.402 9.5625-23.051 9.5938h-346.47c-8.6523-0.03125-16.938-3.4805-23.055-9.5938-6.1172-6.1172-9.5664-14.406-9.5938-23.055v-191.35c0.027344-8.6484 3.4766-16.938 9.5938-23.055 6.1172-6.1133 14.402-9.5625 23.055-9.5938h346.41c8.6523 0.03125 16.938 3.4805 23.055 9.5938 6.1172 6.1172 9.5664 14.406 9.5938 23.055v191.35z"/>
 </g>
</svg>
